<svg version="1.1" id="Layer_1" xmlns="http://www.w3.org/2000/svg" xmlns:xlink="http://www.w3.org/1999/xlink" x="0px" y="0px"
	 width="100%" viewBox="0 0 224 272" enable-background="new 0 0 224 272" xml:space="preserve">
<path fill="#000000" opacity="1.000000" stroke="none" 
	d="
M83.066360,147.066467 
	C92.506668,137.638229 101.772850,128.534637 110.869705,119.264900 
	C113.598633,116.484116 115.566772,115.906212 118.641899,119.025398 
	C132.085236,132.661331 145.784317,146.044647 159.327621,159.582642 
	C170.605942,170.856567 171.286331,188.578735 160.996445,200.357681 
	C151.093597,211.693649 132.816299,213.595734 120.730011,203.855911 
	C116.191017,200.198090 113.610939,200.410568 109.027977,203.872543 
	C92.529938,216.335251 69.852257,209.653763 63.149590,190.367203 
	C59.332165,179.382767 61.403442,168.933167 69.624985,160.264267 
	C73.862022,155.796692 78.416382,151.630066 83.066360,147.066467 
M81.024620,165.529892 
	C80.427368,166.109848 79.816322,166.676361 79.234924,167.271790 
	C71.196465,175.504593 70.878632,185.773560 78.422356,193.371109 
	C85.713272,200.714005 96.067474,200.496155 104.312080,192.770538 
	C106.498627,190.721649 108.784538,188.711884 110.613342,186.363678 
	C113.413277,182.768539 115.936081,183.078430 118.799980,186.145370 
	C120.956795,188.455078 123.233223,190.654465 125.485641,192.873276 
	C133.177750,200.450607 144.165512,200.637207 151.451843,193.329376 
	C158.709854,186.049973 158.747726,175.520462 151.234879,167.883560 
	C140.368271,156.837540 129.221954,146.065887 118.402023,134.975220 
	C115.466934,131.966675 113.733124,132.681396 111.165550,135.305450 
	C101.380081,145.306290 91.405075,155.121643 81.024620,165.529892 
z"/>
<path fill="#000000" opacity="1.000000" stroke="none" 
	d="
M214.165726,136.905350 
	C212.670425,149.434143 206.711014,158.230164 195.116119,162.590866 
	C183.157028,167.088516 172.439194,164.517120 163.398163,155.751556 
	C149.776779,142.545197 136.492020,128.991516 122.861328,115.794983 
	C119.516083,112.556290 119.711647,110.479660 122.922607,107.344612 
	C136.738922,93.854889 150.298981,80.103172 164.057785,66.553932 
	C174.348694,56.419777 192.917160,56.245213 204.361023,65.996681 
	C215.684509,75.645576 217.450394,92.764648 208.404449,105.407936 
	C207.535095,106.623032 206.651001,107.872360 205.562073,108.876198 
	C203.315735,110.947006 203.608337,112.695915 205.668182,114.738815 
	C211.682770,120.703896 213.979294,128.185959 214.165726,136.905350 
M145.168793,101.668373 
	C143.041199,103.777298 141.027267,106.018951 138.758026,107.962502 
	C135.733307,110.553093 136.049042,112.802483 138.742661,115.419807 
	C145.782120,122.259827 152.683975,129.241211 159.692719,136.113174 
	C164.324280,140.654343 168.786697,145.419739 173.787659,149.520309 
	C181.320450,155.696915 191.167526,154.565033 197.987274,147.282089 
	C204.388977,140.445618 204.301849,130.545822 197.704651,123.388336 
	C194.998199,120.452049 192.252396,117.539284 189.351578,114.798859 
	C186.970367,112.549339 187.226440,110.823250 189.433365,108.551064 
	C192.901901,104.979935 196.895187,101.883720 199.666550,97.656700 
	C205.629501,88.561707 202.468994,77.000900 192.719330,72.238914 
	C184.377655,68.164619 177.363617,69.672783 169.339371,77.530525 
	C161.372650,85.331940 153.540649,93.270950 145.168793,101.668373 
z"/>
<path fill="#000000" opacity="1.000000" stroke="none" 
	d="
M121.128731,19.006985 
	C132.384903,11.811291 145.880356,11.732401 155.706207,18.590275 
	C166.147781,25.877892 170.158676,36.748405 167.264175,50.184479 
	C166.220764,55.027874 163.731888,59.150837 160.256104,62.627827 
	C146.485214,76.403458 132.640884,90.105820 118.902161,103.913315 
	C116.457458,106.370247 114.647301,107.557068 111.557228,104.454216 
	C98.053192,90.894386 84.228081,77.654549 70.707481,64.110901 
	C55.239452,48.616497 59.458267,24.548071 79.488503,15.747176 
	C89.744934,11.240703 100.050476,12.679599 109.221436,19.452288 
	C115.005287,23.723618 114.916939,23.843246 121.128731,19.006985 
M142.037399,64.540077 
	C145.219330,61.367599 148.524796,58.308384 151.558517,55.000015 
	C158.758179,47.148590 158.678925,37.059975 151.515488,30.025803 
	C144.518600,23.155172 133.136093,23.175991 125.853798,30.104767 
	C123.321045,32.514572 120.740662,34.890728 118.392044,37.473251 
	C115.800697,40.322674 113.706406,40.494759 111.073479,37.385437 
	C108.615608,34.482849 105.753418,31.886833 102.866425,29.390358 
	C95.305885,22.852497 84.384880,23.424538 77.706818,30.570587 
	C71.080635,37.661121 71.270134,47.953880 78.466263,55.247673 
	C89.451675,66.382172 100.673561,77.283447 111.649239,88.427361 
	C114.164070,90.980736 115.865761,90.757599 118.225365,88.347954 
	C125.911301,80.499046 133.746475,72.796288 142.037399,64.540077 
z"/>
<path fill="#000000" opacity="1.000000" stroke="none" 
	d="
M54.692352,163.039703 
	C36.066505,169.224777 20.641464,156.626892 17.102951,144.329315 
	C13.949364,133.369476 16.147785,123.521523 23.689091,115.075638 
	C26.102812,112.372398 26.170656,110.899315 23.632076,108.165276 
	C12.711349,96.403656 13.161184,78.027672 24.320957,67.096809 
	C35.444775,56.201172 53.860214,55.855068 65.516190,66.700294 
	C73.797935,74.405983 81.649048,82.574776 89.684753,90.544540 
	C95.472115,96.284409 101.144119,102.145912 107.071136,107.737373 
	C109.994766,110.495476 110.270493,112.584137 107.258385,115.528099 
	C93.696365,128.783264 80.292801,142.200455 66.815353,155.542328 
	C63.456310,158.867569 59.534309,161.333664 54.692352,163.039703 
M27.751066,92.457687 
	C29.017172,96.527184 31.229568,99.943161 34.501102,102.725868 
	C36.268799,104.229431 37.733910,106.085503 39.477623,107.621201 
	C42.452145,110.240875 42.799141,112.606651 39.530079,115.362823 
	C36.996376,117.499008 34.707706,119.951576 32.472507,122.411079 
	C26.573074,128.902512 25.409279,136.653244 29.170950,143.533813 
	C34.996658,154.189804 47.689095,157.037323 56.586414,148.847885 
	C68.689491,137.707718 80.092339,125.808678 91.865273,114.306519 
	C94.434639,111.796242 93.258018,110.066277 91.244148,108.098160 
	C80.187042,97.292229 69.249405,86.362984 58.118172,75.634384 
	C51.706928,69.455048 44.213890,68.484848 36.615154,72.373772 
	C29.679811,75.923180 26.432642,82.810059 27.751066,92.457687 
z"/>
<path fill="#000000" opacity="1.000000" stroke="none" 
	d="
M84.126785,252.212494 
	C96.821106,241.126236 106.848831,228.862930 108.878242,211.656799 
	C109.306305,208.027512 111.936882,205.014084 115.453247,205.312378 
	C119.446747,205.651123 119.523804,209.556641 119.107239,212.834579 
	C116.774643,231.189743 111.711945,248.320709 97.408424,261.352661 
	C91.945457,266.329987 84.294632,264.581055 81.424789,257.696625 
	C80.226402,254.821823 82.272011,253.833282 84.126785,252.212494 
z"/>
</svg>